# xmcd
#
# Track frame offsets: 
#        150
#        9787
#        19725
#        28407
#        42727
#        52602
#        61777
#        74062
#        86570
#        101472
#        110535
#        123175
#        135542
#        146552
#        163235
#        172602
#        184545
#        197270
#        206960
#        216995
#        225212
#        234832
#        244565
#        255335
#        267427
#        278430
#
# Disc length: 3893 seconds
#
# Revision: 2
# Processed by: cddbd v1.5.2PL0 Copyright (c) Steve Scherf et al.
# Submitted via: ExactAudioCopy v0.99pb5
#
DISCID=570f331a
DTITLE=Various Artist - Country Christmas  Disc A
DYEAR=1988
DGENRE=Country
TTITLE0=Loretta Lynn - Country Christmas
TTITLE1=George Strait - Santa Claus is coming to town
TTITLE2=Elvis Presley - I'll be home for Christmas
TTITLE3=Gene Autry and The Pinafores - Rudolph, the red-nosed reindeer
TTITLE4=Willie Nelson - Jingle bells
TTITLE5=Buck Owens - Santa's gonna come in a stagecoach
TTITLE6=Merle Haggard - If we make it through December
TTITLE7=Roy Orbison - Pretty paper
TTITLE8=Marty Robbins - A Christmas prayer
TTITLE9=George Jones and Tammy Wynette - Mr. and Mrs. Santa Claus
TTITLE10=Bill Monroe - Christmas time's a-comin'
TTITLE11=Statler Brothers - Carols those kids used to sing
TTITLE12=Reba McEntire - Away in a manger
TTITLE13=Alabama - Tennessee Christmas
TTITLE14=Roger Miller - Old toy trains
TTITLE15=Jerry Lee Lewis - I can't have a Merry Christmas, Mary (witho
TTITLE15=ut you)
TTITLE16=Jim Reeves - An old Christmas card
TTITLE17=Elvis Presley - Blue Christmas
TTITLE18=Davis Sister - The Christmas boogie
TTITLE19=Chet Atkins - Jingle bell rock
TTITLE20=Charley Pride - Christmas in my home town
TTITLE21=Tammy Wynette - One happy Christmas
TTITLE22=Ernest Tubb - I'll be walkin' the floor this Christmas
TTITLE23=Buck Owens - Blue Christmas lights
TTITLE24=Freddy Fender - Christmas in the valley
TTITLE25=Louvin Brothers - The friendly beasts
EXTD=
EXTT0=
EXTT1=
EXTT2=
EXTT3=
EXTT4=
EXTT5=
EXTT6=
EXTT7=
EXTT8=
EXTT9=
EXTT10=
EXTT11=
EXTT12=
EXTT13=
EXTT14=
EXTT15=
EXTT16=
EXTT17=
EXTT18=
EXTT19=
EXTT20=
EXTT21=
EXTT22=
EXTT23=
EXTT24=
EXTT25=
PLAYORDER=
